<?xml version="1.0" encoding="UTF-8"?>
<svg width="24" height="24" viewBox="0 0 24 24" fill="none" xmlns="http://www.w3.org/2000/svg">
  <path d="M17.05 20.28C16.07 21.36 14.87 21.21 13.65 20.63C12.42 20.04 11.34 20.03 10.01 20.63C8.33 21.41 7.45 21.21 6.53 20.28C2.55 15.97 3.7 9.18 8.36 8.91C10.05 8.97 11.33 10.05 12.3 10.05C13.25 10.05 14.89 8.84 16.7 9.01C18.17 9.11 19.35 9.86 20.11 11.15C17.17 12.83 17.85 17.21 20.54 18.32C19.85 19.84 19.02 21.36 17.05 20.28ZM12.03 8.75C11.88 6.17 14 4.18 16.26 4C16.52 6.94 13.41 8.9 12.03 8.75Z" fill="currentColor"/>
</svg> 